<svg xmlns="http://www.w3.org/2000/svg" viewBox="0 0 415 59.9" xml:space="preserve">
  <g fill-rule="evenodd" clip-rule="evenodd">
    <path d="M410 53.8h-1v-2.2h1.2c.6 0 1.3.1 1.3 1.1.1 1-.7 1.1-1.5 1.1m2.6-1.1c0-1.3-.7-2-2.1-2h-2.3v6.9h.9v-3h1l1.7 3h1l-1.7-3.1c.8 0 1.5-.6 1.5-1.8"/>
    <path d="M409.3 59.1c-2.7 0-4.7-2.1-4.7-4.9 0-2.8 2.1-4.9 4.7-4.9 2.7 0 4.7 2.1 4.7 4.9 0 2.8-2.1 4.9-4.7 4.9m0-10.7c-3.1 0-5.8 2.5-5.8 5.7s2.5 5.8 5.7 5.8h.1c3.2 0 5.7-2.5 5.7-5.7v-.1c0-3.1-2.5-5.7-5.7-5.7M298.2 34c-1.9 4.3-3.7 8.6-5.6 12.8-3.1 2-10.2 1-9.7-5.3.3-4 6.2-13.7 15.2-9.1.5.3.3 1.1.1 1.6m-47.6 0c-1.9 4.3-3.7 8.6-5.6 12.8-3.1 2-10.2 1-9.7-5.3.3-4 6.2-13.7 15.2-9.1.5.3.3 1.1.1 1.6m81.3.6c2.9-4.8 12.3-7.2 14.6-1.8.2.4.3 1.3.2 1.9 0 .1 0 .5-.4.5h-14.2s-.5 0-.2-.6m44.4 7.8c.8-2.2 10.2-23 10.2-23h20.3c.6 0 1.1-.2 1.4-.9l4.5-9.7h-22.2l3-7.6h-13.4l-2.9 6.6c-.2.4-.6.9-1.8.9h-7l-4.6 10.7h9.1l-11.6 26.9h-26c-.6-.1-5.4.3-5.5-3.9h24c1.2 0 2.1-.7 2.6-1.6 3.1-6.5 2.3-16.4-7-19.5-7.4-2.2-18.4 0-25 7-4 4.1-8.3 11.4-8.2 18h-6.4c-2.7 0-3.3-2-2.4-3.9.9-2 18.1-41.2 18.1-41.2h-13.3L302 23.6c-7.7-6-32.7.3-33.1 22.8h-7.1c-2.5 0-3.1-1.9-2.3-4 .8-2 9.4-21.2 9.4-21.2h-13.6l-1.3 2.7c-10.7-7-33.2 2.3-33.7 22.5h-36.7c-6 0-9.9-5.1-7.6-10 7.7-16 27.8-23.8 34.9-23.3 3.1.2 2.5 3 .3 5.8-.6.8.1 1.4.6 1.4H225c5.4-8 4.8-21.6-12-20.1-28.2 2.5-51.9 25.2-51.7 42.7.1 8.2 8.5 16.4 18.7 16.6h42.4l1.7-3.9c8 7.9 17.9 3.7 21.1-1.1 1.4 3 5.8 5 7.9 5h16l2.3-5.4c6.9 9.1 17.6 6.5 21.7.4 2 3.4 5.6 5 7.3 5H318l2.1-4.9c3.6 4.6 8.1 4.9 8.9 4.9h31.7l1.8-4.1c.9 1.6 4.6 4.1 8.7 4.1h24.3l5.5-13h-22.7c-2.4-.1-2.8-1.9-2-4.1m-238.7-4.7c-.3 3.9-6.2 13.7-15.3 9.1-.6-.3-.4-1.1-.2-1.6 1.9-4.2 3.7-8.5 5.6-12.7l.6-.3c3.4-1.6 9.8-.4 9.3 5.5m-5.2-15.9 9.2-20.5h-13l-20.2 44.8H100c-1.5 0-2.1-1.6-1.4-3.2l10.1-22H94.8S83.6 45.6 83.4 46h-5c-1.6 0-2.5-1.3-1.7-3.2l10-22H72.8L62.2 44.6c0 .1-.3.6-.5 1.5H22.4c-6 0-10-5.1-7.6-10 7.8-15.9 28-23.7 35.2-23.2 3.1.2 2.5 2.9.3 5.7-.6.8.1 1.4.6 1.4h13.3c5.5-7.9 4.9-21.4-12.1-20C23.6 2.6-.2 25.1 0 42.6c.1 8.1 8.8 16.5 19.1 16.5h42.5l1.9-4.3c1.3 1.9 3.9 4.3 7.7 4.3h12s1.5-3.3 2.2-4.5c1 1.5 3.6 4.5 7.8 4.5H116l1.2-2.5c8 6.4 24 4.7 31.2-13 4.7-11.8-2.2-24.8-16-21.8"/>
  </g>
</svg>
