<svg xmlns="http://www.w3.org/2000/svg" viewBox="0 0 809.6 195.8" xml:space="preserve">
  <path d="M.047.003h809.6v15.3H.047V.003zM.047 180.403h809.5v15.3H-.053v-15.3zM686.747 23.003h122.8v42.2h-33.3v107.1h-56.4v-107.1h-33.2v-42.2M602.347 23.003v149.4h102.4v-44.5h-46.2v-104.9h-56.2M487.047 23.003h61.8l47.4 149.4h-55.1l-5.6-22.7h-34.5l-5.1 22.7h-57.5l48.6-149.4zm21.7 93.4h19.2l-9.4-43.5-9.8 43.5M457.347 23.003h-55l-15.3 72.9-16.6-72.9h-48.6l-15.7 72.9-15-72.9h-54.9l41.1 149.4h51l17.2-72.9 17.6 72.9h52l42.2-149.4M155.047 55.003h81.9v30.7h-39.7v12.8h34.5v30.8h-34.5v12.7h39.7v30.4h-81.9v-117.4M.047 172.403v-149.4h70c41.3 0 74.2 22.5 74.2 75 0 51.1-31.8 74.4-74.5 74.4H.047zm57.8-44.7c17.7 0 29.4-7.4 29.4-30.1 0-24.9-11.6-31.6-29.3-31.6h-4.5v61.7h4.4M783.947 160.003c0-7 5.7-12.2 12.4-12.2s12.4 5.2 12.4 12.2c0 7.1-5.7 12.3-12.4 12.3-6.7-.1-12.4-5.2-12.4-12.3zm12.4 10.2c5.5 0 9.9-4.3 9.9-10.2 0-5.8-4.4-10.2-9.9-10.2-5.6 0-10 4.4-10 10.2 0 5.9 4.4 10.2 10 10.2zm-2.4-8.6h2l2.7 4.5h3l-3.1-4.7c2.1-.3 3.6-1.6 3.6-4.1 0-2.2-1.7-3.7-5.1-3.7h-5.4v12.6h2.3v-4.6zm0-2.1v-4h2.7c1.5 0 3.2.1 3.2 2 0 2.1-1.4 2.1-3.2 2.1h-2.7"/>
</svg>
