<svg xmlns="http://www.w3.org/2000/svg" viewBox="0 0 345 190.5" xml:space="preserve">
  <path d="m306.4 72.4-16.1-48C285.5 9.8 271.8 0 256.5 0h-63.2c-15.4 0-29 9.8-33.8 24.4l-16.1 48c-22 4.2-38.7 23.4-38.7 46.7 0 17.7 9.9 33.1 24.3 41.3 2.6 17 17.4 30.1 35.1 30.1 15.6 0 28.7-10 33.6-23.8H252.1c4.9 13.8 18 23.8 33.6 23.8 17.7 0 32.5-13.1 35.1-30.1 14.4-8.2 24.3-23.6 24.3-41.3-.1-23.3-16.7-42.6-38.7-46.7zm-68.5-48.6h18.6c5.1 0 9.6 3.2 11.3 8.1l13.1 39.5h-43V23.8zM182 31.9c1.7-4.9 6.2-8.1 11.3-8.1h18.6v47.6h-43L182 31.9zm-17.7 134.7c-6.5 0-11.9-5.4-11.9-11.9s5.4-11.9 11.9-11.9 11.9 5.4 11.9 11.9-5.4 11.9-11.9 11.9zm121.2 0c-6.5 0-11.9-5.4-11.9-11.9s5.4-11.9 11.9-11.9 11.9 5.4 11.9 11.9-5.3 11.9-11.9 11.9zm29.7-31.9c-6.4-9.4-17.4-15.7-29.6-15.7-15.5 0-28.6 10-33.6 23.8h-54.2c-5-13.8-18.1-23.8-33.6-23.8-12.3 0-23.2 6.3-29.6 15.7-3.7-4.2-6.1-9.6-6.1-15.7 0-13.1 10.7-23.8 23.8-23.8h145c13.1 0 23.8 10.7 23.8 23.8.1 6.1-2.2 11.6-5.9 15.7zM100.1 137.4h-9.4c-18.9 0-34.3-14.8-34.3-33.7H43.8c0 8.6-7 15.6-15.6 15.6s-15.6-7-15.6-15.6H0c0 15.6 12.6 28.2 28.2 28.2 7.8 0 14.9-3.2 20-8.4 7.5 15.7 23.7 26.5 42.3 26.5H108c-3.3-3.8-6-8-7.9-12.6z"/>
  <path d="M52.2 71.3c8.6 0 16.8 7 16.8 15.6v12.9c0 15.7 11.4 29.2 26.6 29.2h1.8c-.7-3.2-1.1-6.5-1.1-9.9 0-.9 0-1.9.1-2.8-9.7-.9-15.2-8.2-15.2-16.5V86.9c0-15.6-12.6-28.2-28.2-28.2S24.8 71.3 24.8 86.9h12.6c.1-8.6 6.2-15.6 14.8-15.6z"/>
</svg>
