<svg xmlns="http://www.w3.org/2000/svg" viewBox="0 0 82.8 92.6">
  <path d="M5.9 229h24v24h-24v-24z" fill="none"/>
  <path d="M64.3 46.3h9.3L41.2 0 9 46.3h9L0 74.1h32v18.5h18.3V74.1h32.5L64.3 46.3zM17.1 64.8l18-27.8h-8.4l14.5-20.8L55.8 37H47l18.5 27.8H17.1z"/>
  <path d="M32.6 62.2H30v-9.8c-1 .9-2.1 1.6-3.4 2V52c.7-.2 1.4-.6 2.2-1.3.8-.6 1.3-1.3 1.6-2.2h2.1v13.7zM40.9 48.5c1.3 0 2.4.5 3.1 1.4.9 1.1 1.3 3 1.3 5.5 0 2.6-.4 4.4-1.3 5.6-.7.9-1.8 1.4-3.1 1.4s-2.4-.5-3.2-1.5-1.2-2.8-1.2-5.5c0-2.6.4-4.4 1.3-5.5.8-.9 1.8-1.4 3.1-1.4zm0 2.2c-.3 0-.6.1-.8.3-.2.2-.4.6-.6 1.1-.2.7-.3 1.8-.3 3.4 0 1.6.1 2.7.2 3.3.2.6.4 1 .6 1.2.2.2.5.3.8.3.3 0 .6-.1.8-.3.2-.2.4-.6.6-1.1.2-.7.3-1.8.3-3.4 0-1.6-.1-2.7-.2-3.3-.2-.6-.4-1-.6-1.2-.2-.2-.4-.3-.8-.3zM51.5 48.5c1.3 0 2.4.5 3.1 1.4.9 1.1 1.3 3 1.3 5.5 0 2.6-.4 4.4-1.3 5.6-.7.9-1.8 1.4-3.1 1.4s-2.4-.5-3.2-1.5c-.8-1-1.2-2.8-1.2-5.5 0-2.6.4-4.4 1.3-5.5.8-.9 1.8-1.4 3.1-1.4zm0 2.2c-.3 0-.6.1-.8.3-.2.2-.4.6-.6 1.1-.2.7-.3 1.8-.3 3.4 0 1.6.1 2.7.2 3.3.2.6.4 1 .6 1.2.2.2.5.3.8.3s.6-.1.8-.3c.2-.2.4-.6.6-1.1.2-.7.3-1.8.3-3.4 0-1.6-.1-2.7-.2-3.3-.2-.6-.4-1-.6-1.2-.2-.2-.5-.3-.8-.3z"/>
</svg>
