<svg xmlns="http://www.w3.org/2000/svg" viewBox="0 0 72.9 48.6" xml:space="preserve">
  <path d="M36.5 6.1c8 0 14.8 5.7 16.4 13.5l.9 4.6 4.6.3c4.7.3 8.4 4.3 8.4 9 0 5-4.1 9.1-9.1 9.1H18.2C11.5 42.6 6 37.2 6 30.4c0-6.2 4.6-11.4 10.8-12.1l3.3-.3 1.5-2.9c2.9-5.6 8.6-9 14.9-9m0-6.1c-8.8 0-16.4 5-20.2 12.3C7.1 13.2 0 21 0 30.4c0 10.1 8.2 18.2 18.2 18.2h39.5c8.4 0 15.2-6.8 15.2-15.2 0-8-6.2-14.5-14.1-15.1C56.7 7.9 47.5 0 36.5 0z"/>
  <path d="M40.8 21.3h-6.1c-1.1 0-2 .9-2 2v8.1c0 1.1.9 2 2 2h6.1c1.1 0 2-.9 2-2v-8.1c0-1.1-.9-2-2-2zm-1 9.1h-4.1v-6.1h4.1v6.1zm-11.1-1v2c0 1.1-.9 2-2 2h-6.1c-1.1 0-2-.9-2-2v-8.1c0-1.1.9-2 2-2h6.1c1.1 0 2 .9 2 2v2h-3v-1h-4.1v6.1h4.1v-1h3zm25.3 5h-4.1v2H56v3h-9.1v-5.1c0-1.1.9-2 2-2H53v-2h-6.1v-3H54c1.1 0 2 .9 2 2v3c0 1.2-.9 2.1-2 2.1z"/>
</svg>
