<?xml version="1.0" encoding="utf-8"?>
<!-- Generator: Adobe Illustrator 26.3.1, SVG Export Plug-In . SVG Version: 6.00 Build 0)  -->
<svg version="1.1" id="mountain" xmlns="http://www.w3.org/2000/svg" xmlns:xlink="http://www.w3.org/1999/xlink" x="0px" y="0px"
	 viewBox="0 0 362.6 165.5" style="enable-background:new 0 0 362.6 165.5;" xml:space="preserve">
<g>
	<path d="M15.9,106.5c0.8,1.8,2,3.4,2,5.5c0,0.2,0,0.5,0.1,0.6c1.1,1.2,1.5,2.1-0.6,2.8c-1.1,0.4-0.1,2-0.2,3
		c-0.1,0.6,0.6,1.3,1.4,1.6c0.4,0.1,0.9,0.2,1-0.4c0.1-1.4,1.4-2.6,0.5-4.1c-0.2-0.4-0.1-0.8,0.1-1.2c0.8-1.4,1.6-2.8,2.5-4.2
		c0.4-0.7,1.2-1.4,1.7-0.3c0.8,1.7,2,3.5,1.4,5.6c-0.3,1-0.3,2,0.9,2.4c1.3,0.5,1.3-0.8,1.8-1.5c0.4-0.6,0.7-1.3,1.2-1.9
		c2.5-3,2.8-6.2,0.7-9.6c-0.7-1.1-0.7-2.4,0.2-3.7c0.9-1.3,1.4-2.9,2.5-4.1c0.9-1,1.5-0.7,1.8,0.5c0.2,0.6,0.2,1.2,0.2,1.8
		c0,2.2,0.2,4.2,1.4,6.1c0.8,1.2,0.1,2.2-0.4,3.3c-0.5,1-0.9,1.7,0.9,1.6c1.7,0,2.4,1.4,2.5,3c0.1,1.1,0,2.2,0.5,3.2
		c0.6,1.3,1.2,1.6,2.1,0.3c0.4-0.6,1-1.2,1.7-1.4c1.9-0.4,2.1-1.7,1.9-3.2c-0.2-2.3,1.9-3.7,2.1-5.9c1.4,2.1,1.2,4.7,2.7,6.8
		c0.5,0.7,0.8,1.2,1.7,1.3c1,0.1,2,0.4,3,0.7c1.9,0.5,3-0.9,4.3-1.8c0.6-0.4,0.2-0.9,0-1.5c-0.4-1.2-0.4-2.4-0.1-3.6
		c0.2-0.5,0.5-1.1,1.1-1c0.5,0.1,0.4,0.7,0.3,1.2c-0.3,1.3-0.3,2.4,0.8,3.6c1.6,1.7,2.8,1.6,4.1-0.4c0.6-1-0.1-1.3-0.7-1.8
		c-1.3-1.1-1.4-2,0.2-3c1.4-0.8,2.5-1.8,2.6-3.8c0.1-1.1,1.6-2.1,2.6-3.3c0.1,0.8,0.2,1.2,0.2,1.7c1.4,1.4,2.5,2.9,2.4,5
		c-0.1,0.8,0.3,1.5,1.1,1.9c1.1,0.6,1.9,1.5,2.6,2.6c0.7-1.1,0.6-2-0.1-2.9c-0.8-1.1-0.8-2.3,0.3-3.1c1.3-0.9,2.1-2.1,2.9-3.4
		c0.5-0.8,1.1-1.9,2.4-1.7c1.1,0.2,1.5,1.2,1.8,2.3c0.8,2.4,1.9,4.7,2.5,7.2c0.1,0.4,0.3,0.7,0.8,0.7c1.5-0.1,2.9-1.9,2.5-3.4
		c-0.1-0.3-0.3-0.6-0.2-0.8c0.9-1.8,0.4-3.1-1.3-4.3c-0.5-0.4-0.5-1.4,0.1-1.9c1.6-1.3,1.2-3.6,2.7-5c0.4-0.4,0.4-1.1,0-1.5
		c-1.9-2.1-0.5-3.9,0.3-5.8c0.3-0.6,0.7-1.3,0.5-2c-0.7-2.6,0.7-4.6,1.6-6.8c0.3-0.7,0.7-1.4,1.6-1.4c0.8,0,1.1,0.7,1.4,1.4
		c1.2,2.9,1.3,5.9,1.4,8.9c0,0.3-0.2,0.6-0.1,0.8c2.1,2.6,0.2,5.7,1,8.5c0.3,1.3,0.5,2.6,1.4,3.5c1.7,1.7,1.5,3.6,0.8,5.5
		c-0.4,1.2-0.6,2.1,0.4,3c0.7,0.6,0.5,1.5,0.7,2.3c0.8-0.3,1.6-0.5,2.4-0.7c1.2-0.2,1.9-0.6,2.2-2c0.4-1.9,2.5-2.8,3.3-4.6
		c0.4-0.8,0.8-1.5,0.7-2.5c-0.1-2,1-3.6,2.3-5.1c0.8-0.9,1.7-0.7,2.3,0.4c0.3,0.6,0.4,1.3,0.5,2c0.2,1.3,0.3,2.8,1,4
		c0.9,1.6,1.8,3.2,0.8,5.2c-0.3,0.7,0,1.7,0.7,2.2c0.9,0.7,1.5-0.2,2.1-0.6c1.9-1.3,2.7-3.1,1.9-5.4c-0.4-1.2-0.3-2.4,0.1-3.6
		c0.8-2.3,1.4-4.7,2.4-7c0.3-0.8,0.6-2.1,1.9-1.8c1.2,0.3,1.6,1.4,1.6,2.4c0.2,3.2,0.3,6.3-0.1,9.5c-0.1,0.8-0.2,1.6-0.2,2.5
		c0,3.3,0,3.3,3,4.5c0.9,0.3,1.5,0.9,2.1,1.6c1.1,1.5,2.3,1.3,3.6,0.4s2.4-2,3.4-3.3c0.8-0.9,1.5-1.9,2.9-1.5
		c1.4,0.3,1.4,1.5,1.6,2.6c0.2,1.3,0.7,2.5,1.4,3.6s1.6,1.6,2.6,0.3c0.6-0.7,1.3-1,2-1.3c1.9-0.9,2.3-2.5,1.2-4.2
		c-0.1-0.1-0.2-0.2-0.2-0.3c-0.1-2.9-2.5-2.9-4.4-3.7c-4.3-1.8-5.7-4.2-4.7-8.1c0.7-2.7,0.5-5.6,1.2-8.4c0.6-2.4,1.9-4.2,4-5.2
		c2.4-1.1,3.6-2.8,4.3-5.2c0.7-2.5,0.5-5,0.4-7.6c0-1.1-0.6-1.8-1.8-1.9c-0.9,0-1.4-0.6-1.8-1.4c-2.5-4.9-6.6-8.4-10.8-11.7
		c-1.4-1.1-3.1-1.5-4.9-1.3c-2.2,0.2-3.7-0.6-4.6-2.6c-0.4-0.8-0.9-1.6-1.2-2.4c-1-2.3-2.2-4.3-4.6-5.3c-0.8-0.3-1.4-1-1.7-1.7
		c-1.7-4-5.3-6.3-8.3-9.1c-2.1-1.9-4.4-3.5-6.5-5.4c-0.6-0.6-1.3-1.1-1.1-2.1c0.4-1.3,1-2.3,2.5-1.3c5.5,4.7,11.1,9.3,16.6,14.1
		c7,6.1,13.7,12.6,20.9,18.5c1.9,1.6,3.7,3.4,5,5.6c0.8,1.2,1.4,1.3,2.4,0.2c3.1-3.2,5.9-6.6,8.7-10c2.7-3.2,5.4-6.5,9.2-8.6
		c2.1-1.2,4.4-1.6,6.7-1.2c3.2,0.6,5.6-0.3,7.2-3.2c2-3.3,4.1-6.6,6.2-9.9c1.4-2.1,2.9-4.1,5-5.5c2.4-1.5,3.8-1.4,5.8,0.7
		c2.6,2.9,4.6,6.2,6.4,9.6c3.9,7.3,7.6,14.7,11.4,22c0.5,1,1.1,1.8,2.6,1.9c2.7,0.2,4.7,2,6.6,3.8c2.2,2.1,4.1,4.5,6.1,6.9
		c1.4,1.8,2.7,1.8,4.6,0.5c1.4-1,2.4-2.4,3.7-3.6c1.5-1.3,2.7-1.2,4,0.2c3.5,4,3.5,4,7.3,0.1c5.4-5.4,10.3-11.2,16.2-16.1
		c1.8-1.5,3.7-2.9,5.8-4.2c1.1-0.7,1.8-0.6,2.5,0.5c1.8,2.9,4,5.7,6.5,8.1c1.9,1.8,3.8,2.2,6.3,1.2c12.1-4.9,22.5-12.2,31.3-21.7
		c1.6-1.7,2.9-3.7,4.2-5.7c1.3-1.8,2.6-1.8,3.8,0.1c2.3,3.8,4.3,7.9,7.2,11.3c0.6,0.7,1,1.4,2.2,1c1-0.3,1.4,0.7,1.9,1.3
		c3.7,4.9,7.1,10.1,10.6,15.2l8.7,12.9c0.2,0.3,0.2,0.6,0.4,0.9c0.6,1.1,1,2.2,1.2,3.3c0.3,1.7-0.6,2.5-2.4,2.1
		c-2-0.9-2.5-3.3-4.3-4.5c-1.2-0.9-2.8-1.5-3.6-3c-0.3-0.5-1-0.5-1.5-0.2c-4.3,2.5-9.5,2.3-14.1,3.9c1.7-1.8,4.1-2.5,6-4
		c1.5-1.1,2.9-2.3,3.8-3.9c2.3-4.3,0.7-7.4-3-9.7c-3.6-2.2-6.3-5-8.3-8.7c-1.3-2.4-2.8-4.7-4.6-6.7c-2.3-2.6-4-2.7-6.4-0.2
		c-0.8,0.8-1.6,1.6-2,2.5c-1.4,2.8-3.7,4.3-6.6,5.2c-3.8,1.1-6.8,3.1-9.2,6.4c-1.3,1.8-3.1,2.7-5.4,2.8c-3.1,0.2-5.3,2.3-7.7,4
		c-0.8,0.6-1.5,1.4-2.4,1.9c-1.6,0.9-1.4,2-0.2,2.8c5,2.8,7.6,7.7,10.9,11.9c0.6,0.2,1.1-0.2,1.7-0.1c1.1,0.4,2.3,0.5,3.1,1.6
		c0.6,0.9,1.2,0,1.8,0c1.9,0.6,2.6,2.4,3.6,3.9c0,0.7-0.4,1.1-1,1.3c-2.5-0.4-5-1-7.4-1.7c-1.1-0.3-1.5-1.3-2.2-2
		c-2.4-1.9-4.9-3.6-7.7-5c1.8,2.9,1.3,5.7,0.1,8.5c-0.2,0.4-0.2,0.9-0.3,1.4c-0.4,1.2-0.6,2.5,0,3.7c0.1,0.5,0.1,1.1,0.3,1.6
		c2.3,4,1.6,8.4,1.6,12.7c0,0.2-0.2,0.5-0.3,0.7c-1.8-2.1-1.3-4.8-2-7.2c-2.7-9.9-7.4-18.7-13.6-26.7c-3.5-4.5-3.8-9.6-4.1-14.9
		c0-1.1,0.6-2.7-0.5-3.2c-1.2-0.6-2.1,0.9-3.1,1.6c-3.3,2.2-5.1,5.5-6.9,8.9c-0.2,0.5-0.6,0.9-0.9,1.4c-0.5,0.9-1,1.1-1.6,0.1
		c-0.8-1.5-1.3-0.8-2,0c-1.2,1.5-2.5,2.8-3.8,4.3c-0.6,0.7-0.6,1.2,0.2,1.8c3,2.3,5.2,5.4,6.3,9c0.3,1.1,1,1.8,1.9,2.2
		c2.1,1,4,2.3,5.4,4.2c2.8,3.8,7.3,5.6,10.8,8.7c1.6,1.4,3.3,2.8,4.6,4.6c-5.7-2.3-11-5.3-15.8-9.1c-4.8-3.8-7.9-9.3-12.4-14.1
		c0,6.2-0.7,11.9,2.7,17.2c2.7,4.2,5.8,8.3,7.6,13c0.8,2.2,1.8,4.4,2.3,6.8c0.1,0.5-0.1,1.3,0.7,1.3c0.3,0,0.9-0.9,0.8-1.2
		c-0.5-1.8,1.3-2.8,1.5-4.3c0-0.3,0.2-0.7,0.7-0.8c0.8,1.9,1.7,3.9,1.1,6.1c-0.4,1.6,1.1,1.3,1.8,1.7c0.8,0.5,1.5-0.8,1.5-0.9
		c-0.9-1.4,0.8-2.4,0.5-3.4c-0.7-2.5,0.2-4.7,0.7-7.1c0.2,1.6,2.2,2.4,1.4,4.6c-0.4,1.1,0.2,2.8,1.2,4c0.1,0.2,0.3,0.3,0.4,0.5
		c0.2,0.6-0.1,1.8,0.9,1.6c0.8-0.2,1-1.3,1.1-2.2c0.1-2.2,0.8-4.2,1.8-6.3c0.9,1.7,0.2,3.8,1.9,5.2c0.5,0.4-1.2,0.8-0.4,1.8
		c1,1.2,1.6,1.3,2.3,0c0.6-1,1.2-2,1.3-3.2c0.1-1.1,1.1-2,0.7-3.5c1.8,1.7,0.5,3.7,1.5,5.2c0.1,0.2-0.3,0.7,0.3,0.7
		c0.4,0,0.6-0.2,0.7-0.6c0-0.2,0-0.4,0.1-0.6c0.5-0.8,0.3-2.5,1.5-2.3c0.8,0.1,0.8,1.6,1,2.6c1.1-0.1,0.4-1.4,1.3-1.7
		c0.1,0,0.2,0,0.3,0.1c0.5,0.6,0.3,2,1.4,1.9c1.2-0.1,0.3-1.4,0.9-2c0.5-0.6,0-1.5,0.6-2.1c0.8,0.9,0.2,2.3,1.2,3
		c2.3-1.1,1.3-4,3.1-5.4c0.9,0.7,0.5,1.7,0.5,2.6c0,1,0.4,2.2,1.3,2.2c1,0,0.6-1.6,0.8-1.9c1-1.6,0.7-3.6,1.9-5.1
		c-0.2,1.9,1.1,3.2,1.6,4.8c0.2,0.9,0.7,1.9,2.2,1.2c0.8-0.4,1.9-0.1,2.8,0.1c1.1,0.3,1.6,0,2.3-1.3c1.1-2.4,1.6-5.1,3.2-7.3
		c0.2-0.3,0.5-0.6,0.7-1c0.3-0.5-0.2-1.5,0.7-1.3c0.3,0,1,0.8,1.1,1.6c0.3,1.7,0.3,3.5,0.3,5.2c0,1.4,1.3,2.2,0.9,3.5
		c0,0,0.3,0.3,0.4,0.3c0.4,0,0.5-0.3,0.6-0.7c0.5-1.5,0.9-2.9,1.5-4.6c1.4,1.1,1.7,2.8,1.1,3.9c-0.6,1.2-0.9,1.8,0.2,2.7
		c0.2,0.2,0.2,0.7,0.3,1.2c1.1-2.1,2.5-3.8,2.4-6.2c0.4-0.8,0.2-2,1.6-2.1c0.7,1.7,1,4.1,0.5,5.2c-1.1,2.4,0.9,3.6,1.3,5.3
		c0.2,1.1,2.9,1.2,4.6,1.5c2,0.3,4-0.3,5.9-0.7c4-0.7,8-1.5,12.1-2.3c0.1,0.1,0.2,0.1,0.3,0.2c0.1,0.2,0.2,0.3,0.3,0.6
		c-0.3,2.1,0.3,4.4-1.4,6.1c-1.7,0.6-3.6,0.3-5.3,1c-4.8,1.1-9.5,2.3-14.3,3.4c-1.3,0.3-2.6,0.4-4.5,0.8c2.1-2,4.6-2.2,6.3-3.9
		c-1.8-1-3.8-1.2-5.7-1.4c-4.6-0.4-9-1.6-13.4-2.7c-1.3-0.3-2.4-1-3.4-2.1c-2-2-5.3-3-7.8-0.1c-2.9,3.5-7.1,5.4-11.4,7.6
		c3.2,0.7,6.1,1.4,9,2.1c1.8,0.4,3.5,1,5.3,1.5c0.3,0.1,0.8,0.5,0.9,0.8c0,0.6-0.5,0.8-1,0.8c-1.3,0.1-2.6,0.1-3.9,0.1
		c-6.7,0.1-13.5-0.3-20.2-0.8c-2.6-0.2-4.9,1-7.3,1.6c-7.6,2-15.3,3.7-23.1,4.6c-3,1.1-3.8,0.7-5-2.5c0-0.2,0-0.5,0.1-0.5
		c1.6-0.2,3.1-0.9,4.8-0.3c0.3,0.5,0.8,0.7,0.8-0.1c0-1.1,0.5-1.2,1.4-0.9c0.2,0.2,0.7,0.6,0.9,0.3c1.5-1.9,3.8-1.7,5.7-2.3
		c0.4-0.1,0.9-0.1,0.9-0.7s-0.6-0.4-0.9-0.4c-0.3-0.1-0.7-0.1-1-0.1c-3.2,0.1-3.8-0.2-4.2-3.4l-0.3-0.3c-0.4-0.3-0.5-1.4-1.2-1
		c-0.7,0.3-0.4,1.1-0.2,1.8c-0.5,1.4,1.5,1.5,1.4,2.7c-0.9,0.3-1.7,0.3-2.3-0.7c-0.2-0.4-0.5-0.7-1-0.3c-0.3,0.3-0.2,0.6,0,0.9
		c0.7,1.4,0,1.5-1.1,1c-1.3-0.6-2.3,0.5-3.6,0.5c-9-0.2-18,0.2-27,0.6c-3.6,0.1-7.2,0-10.7-0.4c-1.6-0.2-3.1,0-4.7,0.2
		c-6,0.8-12,1.4-18,1.9c2.6-1.8,5.8-2.2,8.4-3.8c-1.5-1-3.3-1.4-5.1-1.4c-24.2-0.5-48.4-1-72.6-1.4c-3.6-0.1-7.3,0.4-10.9,0.1
		c-12.6-0.9-25.3-0.5-37.9-0.9c-2.5-0.1-4.9,0.2-7.4,0.6c-2.6,0.5-5.1,0.5-7.7-0.2c-3.3-0.9-6.6-0.3-9.3,2c-1.1,0.9-2.4,1.2-3.8,1.5
		c-3.3,0.7-6.6,1.3-9.9,1.8c-1.8,0.3-3.7,0.4-5.5-0.1c-1.4-0.4-2.7,0.1-3.9,0.8c-0.7,0.4-1.4,0.7-2.1,0.6c-5.7-1-11.5-0.3-17.3-0.5
		c-3-0.1-3-0.1-3-3c0-3.2,0-6.3-0.1-9.5c0-0.9,0.1-1.8,0.5-2.6c0.6-1.5,1.2-2.9,0.9-4.6c-0.1-0.4,0-0.9,0.2-1.2
		c1.3-1.6,0.6-3.4,0.7-5.2c0-0.4-0.4-1,0.2-1.2c0.6-0.1,1.5-0.5,1.8,0.4c0.6,1.5,1.6,2.9,0.9,4.7c-0.4,0.9-0.4,1.8,0.3,2.7
		c0.3,0.4,0.6,0.9,0.4,1.5c-0.7,2.5,0.1,4.8,0.4,7.6c1.1-1.4,2.7-2,1.7-4.2c-0.6-1.3,1-2.3,1.9-3.4c0.5-0.7,0.6-1.5,0.6-2.4
		C15.3,107,15.1,106.4,15.9,106.5L15.9,106.5z"/>
	<path style="fill:#FEFEFE;" d="M105.5,26c4.1,3.5,8.1,7,12.3,10.4c1.5,1.2,2.5,2.6,3.2,4.1s1.5,2.8,3.1,3.2
		c1.8,0.5,2.4,1.9,3.1,3.3c0.8,1.8,1.8,3.4,2.6,5.1c0.5,1,1.3,1.4,2.3,1.2c3-0.6,5.5,0.4,7.7,2.4c3.3,3.1,7,5.9,9.1,10.1
		c0.3,0.7,0.6,1.3,0.9,2c2.2-1.2,3.1-0.7,3.4,2.3c0.3,3.6,0.3,7.3-1.2,10.7c-0.6,1.4-1.7,2.4-3,2.9c-3.7,1.3-4.7,4.3-5,7.7
		c-0.2,2-0.2,4-0.7,5.9c-1.2,3.9,1.3,5.5,4.1,6.6c1.5,0.6,3,1.3,4.7,1.4c0.5,0,1.1,0.3,1.5,1.1c-0.6,0.4-1.3,0.9-2.1,1.4
		c1.4,1.2,2.2-0.6,3.6,0.1c-1.4,1-1.2,2.6-1.9,3.9c-0.6,1.2-0.9,3-3,2.6c-0.6-0.1-1,0.8-1.3,1.4c-0.8,1.5-1.8,1.7-3,0.3
		c-1.5-1.7-2.1-3.8-2.5-5.9c-0.1-0.7,0.1-1.5-0.8-1.7c-0.7-0.1-1.1,0.5-1.4,1c-1.1,1.7-2.7,2.9-4.1,4.2c-0.9,0.9-2,0.7-3.1,0.7
		c-1.2,0-1.6-0.5-1.9-1.7c-0.3-1.3-1.9-1.4-3.2-1.4c-1.7,0.1-2.1-0.7-2.1-2.3c0-4.5,0.7-9,0.5-13.6c-0.1-1.1-0.1-2.2-1-3.3
		c-1.5,3.2-2.4,6.5-3.4,9.8c-0.2,0.8,0.1,1.6,0.3,2.4c0.6,2.6,0,4.2-2.1,5.7c-0.2,0.2-0.5,0.3-0.6,0.5c-0.5,1-1.3,1.7-2.4,1.3
		c-1.3-0.5-2-1.8-1.8-2.9c0.4-2.6,0-4.9-1.2-7.3c-0.8-1.5-0.7-3.4-0.9-5.2c-1.7,0.8-1.5,2.8-2.8,3.9c-0.5,0.4,0.3,1.1,0.6,1.6
		c0.3,0.4,0.9,1.2,0.3,1.4c-1.7,0.5-1.9,2.3-3,3.3s-2.6,1.6-1.6,3.5c0.1,0.1,0.2,1.3-0.7,1.2c-2.8-0.2-5.2,1.5-8.2,1.8
		c0.5-0.6,0.8-1,1.2-1.4c1.1-1.2,1-2.2-0.5-2.8c-1.5-0.6-1.5-1.3-0.4-2.5c1.7-1.8,1.4-4.8-0.7-6.2c-0.6-0.4-1-0.8-0.9-1.4
		c0.5-2.4-1.4-4.9,0.3-7.3c0.2-0.4,0-1-0.4-1c-2.2-0.6-0.9-1.8-0.8-3.1c0.2-2.4-0.1-4.9-0.8-7.2c-0.2-0.8-0.5-1.5-0.9-2.7
		c-0.9,3.1-2.9,5.6-1.7,8.8c0.2,0.4,0.3,1-0.1,1.1c-1.6,0.6-1.1,2.4-2,3.4c-0.8,0.8,0.4,1.4,1,1.8c1.4,0.9,1.5,1.7,0.1,2.8
		c-0.9,0.7-1.8,1.5-1.4,2.9c0.2,0.9-0.5,1.4-1.2,1.8c-1.2,0.6-1.2,1,0,1.5c0.2,0.1,0.3,0.2,0.5,0.3c0.9,0.5,2.4,0.3,2.6,1.2
		c0.2,0.9-1.2,1.2-1.8,2c-0.6,0.8-0.4,1.1,0.3,1.6c1.2,0.9,1.2,1.7-0.3,2.6s-3.5,1.4-4.2,3.6c-1.3-4.2-3.2-8.2-4.6-12.4
		c-1,0.6-1.5,1.4-1.8,2.3c-0.4,1.3-1.2,2.2-2.5,2.8c-1.2,0.6-1.6,1.4-0.1,2.2c1.1,0.5,1.3,1.4,0.5,2.2c-1,1.1-0.3,2,0.4,3
		c-1.4,0.5-2.5,1.2-2.7-1.1c-0.2-1.6-1.8-2.4-3.2-2.8c-1.1-0.4-1.5-0.7-1-1.8c0.4-1.1,0.6-2.1-0.6-3.1c-0.5-0.5-0.8-1.7-0.5-2.7
		c1.3-1,1-1.8-0.3-2.5c-0.3,0-0.5,0-0.5-0.1c-0.8-2-2.1-4-2.1-6c0-2.6-0.1-3.3-2.9-3.4c-0.7,0-1.5-0.3-2.2,0.1
		c-1.1,0.6-1.8-0.1-2.5-0.8c-2.9-2.8-5.6-5.8-8.8-8.4c-2.1-1.7-4.1-3.6-6.2-5.4c-1-0.5-2.1-0.7-2.8-1.6c-2.5-2.3-5.8-3.4-8.5-5.3
		c-1.3-0.9-2.3-1.9-3.3-3c-1-1.2-0.7-2.7,0.6-3.5c0.5-0.3,1-0.5,1.5-0.7c2.3-0.7,4.1-1.9,5.1-4.3c1.2-2.8,4-4.5,6.3-6.4
		c3.3-2.6,6.5-5.1,10.3-7.1c2.4-1.2,4.4-3.4,5-6.5c0.8-4.4,2.3-8.5,5.5-11.7c1-1,1.5-2.3,2.2-3.4c0.6-0.9,1-2,2.5-1.8
		c0.9,0.8,1.4,1.8,1.3,3.1c-0.3,5.1-2,9.9-3.9,14.6c-2.3,5.8-2.1,11.5,1.2,17c0.9,1.5,1.6,3,2.2,4.7c0.6,2.1,2,3.7,3.2,5.5
		c1.1,1.6,2.7,2.9,3.3,4.9c0.2,0.6,0.8,1,1.3,1.2c3.2,1,5.2,3.4,6.8,5.2c-4-3.9-7.7-8.9-10.3-14.6c-1-2.3-2-4.7-1.7-7.4
		c0.3-3.4-1.1-6.1-3.3-8.6c-0.4-0.4-0.8-0.8-1.1-1.2c-1.3-1.8-2-3.5-1-6c2.8-6.9,5.4-14,7.3-21.2c0.8-3.2,1.9-6.5,1.8-9.9
		c0-0.8,0-1.8,1.1-2c1.1-0.1,1.2,1,1.4,1.7c1.1,4.6,1.6,9.3,2.4,14c1.3,7,2,14,4.5,20.7c1.8,4.9,4.4,9.3,8,13.1
		c4.2,4.5,8.3,9.2,10.1,15.3c0.5,1.7,0.8,3.5,1.4,5.2c0.4,1,0.7,2,1.5,2.7c3.4,2.9,6.4,6.3,9.6,9.4c0.5,0.5,0.9,1.1,1.7,1.1
		c0.5-0.4,0.2-0.9,0-1.3c-3-7.2-6.7-14-9.8-21.1c-5-11.4-12-21.5-19.1-31.5c-2.9-4.1-3.5-8.6-4-13.1c-0.4-3.5-1.2-6.9-1.9-10.3
		c0-1-0.4-1.9,0.5-2.5s1.6-0.1,2.2,0.4c3.4,2.7,6.8,5.4,10.1,8.2c0.4,0.4,0.9,0.8,0.9,1.4c0.1,3,2,3.9,4.5,4.2
		C103.4,23.2,105.1,23.9,105.5,26L105.5,26z"/>
	<path d="M69.2,19.9c-1.2,2.4-2.6,4.6-4.4,6.6c-2.5,2.7-3.7,6-4.3,9.5c-0.7,4.4-3.2,6.9-7.1,8.8c-3.4,1.6-6.2,4.1-9.1,6.4
		c-1.6,1.3-3.1,2.7-4.5,4.1c-0.9,0.8-1.7,1.7-1.7,3.1c-0.1,1.1-1.2,1.8-2.2,2.2c-1.2,0.5-2.4,1-3.6,1.4c-1.8,0.5-2,1.4-0.7,2.8
		c2.3,2.6,5.6,4,8.5,5.8c1,0.7,2,1.4,3,2c0.5,0.8,1.6,1.8,0.7,2.7c-1,1.1-1.7-0.6-2.5-0.8c0.2,0.1,0.5,0.3,0.8,0.5
		c1,0.8,2,1.6,2.6-0.4c0.1-0.4,0.6-0.6,1-0.4c5.7,4.4,10.7,9.5,15.9,14.4c0.3,0.3,0.7,0.6,1.1,0.9c0.2,0.5,0.5,0.7,0.9,1.1
		c2.4,2.2,4.5,4.6,4,8.4c-2.3-0.5-4.5-1.7-6.7-3.1c-3.6-2.3-6.8-4.9-9.2-8.5c-1.8-2.7-4.4-1.6-6.6-1c-2.7,0.7-5.3,2.1-7.9,3.1
		c-1.2,0.5-2.4,1-3.6,1.3c-1,0.3-1.9,0.3-2.6-0.6c-0.4-0.7-0.5-1.4-0.1-2.1c-0.2-1.5-1.5-2.9-2.5-2.8c-0.2,0.3-0.6,0.5-0.9,0.6
		c-0.9,0.1-1.5,0.6-2.1,1.2c-0.3,0.3-0.5,0.7-0.8,0.9c-1.5,0.7-2,2-1.9,3.5c-0.5,0-1.1,0.1-1.6,0c-1.4-0.5-2.3,0-2.8,1.3
		c-0.3,0.7-0.7,1.2-1.4,0.9c-2.2-1-4.4,0-6.6,0.1S6,94.1,3.8,94.2C3.5,94.4,3.1,94.4,3,94c-0.1-0.6,0.4-0.9,0.9-1.1
		c0.6,0,1,0,1.4-0.6c3.5-6.4,7.9-12.2,12.4-17.9c4.1-5.2,6.1-11.2,6-17.8c0-1.1,0.2-2,1.1-2.9c1.3-1.2,1-2.1-0.6-2.9
		c-2.3-1.1-4.1-2.9-6.2-4.3c-1.7-1.1-3.2-1.4-5.3-0.8c-3.8,1-5.7,3.9-7.6,6.8c-0.8,1.2-1.7,2.5-2.5,3.7c-1,0.6-1.7,0-1.7-0.9
		c-0.1-2.2-0.1-4.3-0.4-6.4c-0.1-0.7,0.5-1.2,1-1.7c3.7-1,7.3-2.2,10.7-3.9c2.6-1.2,4.7-0.5,6.7,0.8c1.9,1.1,3.7,2.6,5.5,3.8
		c2.5,1.6,3.7,1.5,5.7-0.8C34.3,42.2,38,36.9,42.3,32c1.6-1.8,3.2-3.3,5.8-3.2c1.4,0,2.2-0.8,3.1-1.8c7.5-8.3,15-16.6,22.6-24.9
		c0.4-0.5,0.8-0.9,1.3-1.3c1.1-0.9,2-1.1,3.5-0.1c7.3,4.9,13.6,11,20.5,16.3c0.1,0.1,0.1,0.2,0.2,0.3c0.5,1.1,1,2.2,2.5,2.1
		c1.4,0.8,2.5,2,3.6,3c0.4,1.6,0,2-1.4,1.9c-0.8-0.1-1.6-0.4-2.3-0.7c-1.4-0.3-2.6-1.1-3.9-1.8c-0.4-0.2-1-0.7-0.9-1
		c0.5-3-2.1-3.9-3.8-5.3c-2.7-2.3-5.4-4.4-8.5-7c1.1,4.9,2.4,9.3,2.4,13.8c0,7,4.4,11.8,7.9,17.1c6.4,9.4,12.1,19.1,16.8,29.5
		c3,6.6,5.9,13.2,9.2,19.7c0.2,0.5,0.9,1,0,1.6c-0.8,0.5-1.5,0.5-2.2-0.2c-2-2-4.1-4.1-6.2-6c-1.9-1.8-3.7-3.9-5.8-5.5
		c-2-1.5-2-4-2.5-6.1c-1.3-4.9-3.5-9.2-6.9-13c-3.6-4.1-7.5-7.9-9.9-13c-2.1-4.4-3.5-9-4.5-13.8c-0.7-3.8-1.3-7.7-1.9-11.5
		c-0.9-4.9-1.6-9.9-2.4-14.8c0-0.3,0-0.6-0.3-0.7c-0.4,8.6-3.4,16.6-6.2,24.7c-1.1,3.2-2.3,6.3-3.4,9.4c-0.6,1.7,0.4,2.7,1.2,3.8
		c0.8,1.1,1.8,2,2.6,3.1c1.2,1.5,1.9,3.2,1.9,5.3c-0.3,6.7,2.9,12,6.7,17.2c2.1,2.9,4.3,5.7,6.7,8.4c0.3,0.3,0.3,0.8,0.1,1.5
		c-1.4-1.3-2.9-2.6-4.3-3.9c-1.6-1.5-3.2-2.9-5.5-3.2c-0.5-0.1-0.9-0.4-1.2-1c-1.3-3-4-5.2-5.4-8c-2.3-4.5-4.7-8.9-6.2-13.7
		c-1.2-3.9-0.2-7.8,0.9-11.5c0.8-2.5,2-4.9,3-7.4c0.9-2.2,0.3-4.6,0.9-6.9C69.5,22.1,70.4,20.8,69.2,19.9L69.2,19.9z"/>
	<path style="fill:#030303;" d="M360.9,97.8c-2.7,3.2-6.1,4.4-10.2,4c-3.9-0.4-7.2,1.7-10.8,2.6c-1.4,0.4-2.8,0.9-4.4,1
		c2.2-1.6,4.5-3.2,6.6-4.9c2.1-1.7,4.6-2,7-2.4c3.5-0.5,7-1,10.2-2.7C361.2,95.2,361.4,95.5,360.9,97.8L360.9,97.8z"/>
	<path style="fill:#121212;" d="M243.2,134.5c-8.1,0.6-16.2,1.2-24.2,1.8c0-0.2,0-0.3-0.1-0.5c7-1.5,14-2.6,21-3.7
		c0.8-0.3,1.6-0.2,2.4,0C242.6,132.8,244.1,133.2,243.2,134.5L243.2,134.5z"/>
	<path style="fill:#121212;" d="M242.1,132.5c-0.7-0.4-1.4-0.4-2.2-0.4c1.7-0.6,3.4-0.8,5.2-0.9c0.7-0.1,1.3-0.1,1.5,0.7
		c0.2,0.7,1,1.4,0.3,2.1c-0.7,0.7-1.5,0.1-2.3-0.1C243.8,133.2,242.7,133.3,242.1,132.5L242.1,132.5z"/>
	<path style="fill:#161616;" d="M27.1,85.4c0.1-0.3,0.3-0.5,0.4-0.8c0.6-0.2,1.4-0.1,1.6,0.5c0.5,1.6,2.1,2.4,2.9,3.7
		c-0.5,0.4-1.2,0.7-1.2,1.5c-0.5-0.3-0.5-1.1-1.2-1.2c-1.2-0.8-2.6-1.6-2.9-3.2C26.8,85.7,26.9,85.5,27.1,85.4z"/>
	<path style="fill:#C8C8C8;" d="M3.6,92.9c0.1,0.4-1.4,0.7-0.1,1.2c-0.9,1-2,1.3-3.4,1.2C1.2,94.4,2.2,93.4,3.6,92.9z"/>
	<path style="fill:#343434;" d="M334.6,103.2c-0.8,0.5-1,1.4-1.6,2.1c0-1.3,0.8-2.4,0.6-3.8C334.6,101.8,334.8,102.4,334.6,103.2z"
		/>
	<path style="fill:#8F8F8F;" d="M9.8,149.4c0-0.1-0.1-0.2-0.1-0.3c2.1-0.1,4.3-0.3,6.3,0.7C13.9,149.6,11.8,149.5,9.8,149.4z"/>
	<path style="fill:#202020;" d="M293.2,89.2c-1.2-1.2-0.8-2.5,0-3.7V89.2z"/>
	<path style="fill:#6A6A6A;" d="M15.9,106.5c-0.8,1,0.1,2.6-1.2,3.3c0.7-1.5,0.1-3.3,0.9-4.8C16.1,105.4,15.8,106,15.9,106.5z"/>
	<path style="fill:#FEFEFE;" d="M218.6,107.7c-0.2-1-0.7-2.2-1.6-2.1c-0.9,0-1.1,1.3-1.2,2.3c-0.1,0.3,0,0.7-0.5,0.9
		c0-2.3-1.6-4.2-1.4-6.5c0-0.5-0.3-0.8-0.7-0.9c-0.6-0.1-0.7,0.4-0.8,0.7c-0.5,1.3-0.8,2.7-0.9,4.2c-0.1,2.6-0.6,5.1-1.3,7.9
		c-0.7-1-0.7-1.6-0.7-2.5c0-2.7,0.2-5.5-1.7-7.9c-1.5-1.8-2.3-4.1-2.4-6.4c-0.1-2.8-0.8-5.2-2.6-7.4c-1.7-2.1-2-4.4-1.1-7.1
		c1.3-4,0.8-8.1-0.9-11.8c-0.9-2.1-1.2-3.7,0.5-5.3c1.1-1,1.1-2.1,0.4-3.4c-1.9-3.3-3.7-6.6-5.6-9.9c-0.6-1-0.6-1.9-0.2-3.1
		c0.9-2.7,1.3-5.6,1.5-8.5c0.1-1.8-0.1-3.6,0.1-5.4c0.2-2.7-0.1-5.6,2.9-7.3c3.1,3.7,5.3,8,7.5,12.3c3.3,6.3,6.5,12.6,9.8,18.9
		c1.2,2.3,3,4.3,5,5.8c2.6,2,3.1,4.9,3.7,7.7c0.3,1.3,0.7,2.2,1.9,2.9c3.7,2.1,7.3,4.2,11.1,6c1.3,0.6,2,1.8,2.8,2.9
		c4.4,6.2,8.7,12.4,13.7,18.2c1,1.2,1.7,2.7-0.4,3.8c3.3,2.1-0.8,2.5-0.7,3.9c2.2,0.9,2.2,0.9-1.3,3.8c-0.9-0.2-0.5-1.3-1.2-1.7
		c-0.7,0.3-0.7,1-0.9,1.6c-0.2,0.5-0.2,1.2-0.9,1.1c-1,0-0.2-1-0.7-1.4c-0.4,0.6-0.7,1.1-1.1,1.8c-1.1-0.6-0.3-1.6-0.5-2.4
		s0.5-1.8-1-2.2c-0.5,0.7,0,1.9-1.2,2.7c-1.5-2.1-1.3-4.8-2.6-7.5c-0.3,2.6-0.6,4.9-0.7,7.2c-0.2,3.5-2,5.1-5.4,4.9
		c-1-0.1-0.8-0.8-0.8-1.3c0-1.9,0-3.7-0.3-5.6c-1.2,1.8-1.9,3.8-2,5.9c-0.1,1.9-1.2,2.1-2.6,2c-0.3,0-0.7-0.1-1-0.2
		c-2.9-1.5-5.8-1.1-8.8,0.2c-0.4-2.3-0.1-4.4-0.2-6.4c0-0.9,0.1-1.9-1.2-2C219.3,110.1,219,108.8,218.6,107.7L218.6,107.7z"/>
	<path style="fill:#FEFEFE;" d="M178.9,72.2c0.8-0.9,1.5-1.9,2.3-2.8c1.1-1.3,1.5-2.8,2.2-4.3c1.3-2.7,3.2-5,4.9-7.5
		c0.3-0.4,0.8-0.7,1.6-1.3c-0.4,3.3,1.1,5.6,2.6,7.9c0.3,0.5,0.5,1,0.5,1.5c-0.2,4.2,0.8,8.5-1.1,12.6c-0.5,1-0.1,2,0.5,2.9
		c0.7,1,1.3,2,1.1,3.2c-0.8,5.9,2.3,10.4,5.9,14.5c2.1,2.3,4.3,4.5,6.9,6.4c1.8,1.3,2.3,2.9,0.7,4.5c-1.4,1.4,0.4,3.1-0.9,4.3
		c-0.3,0.3,0.2,1.6-0.7,1.4c-0.7-0.1-1.5-1.2-1.3-1.9c0.5-1.9-0.7-3.5-0.9-5.3c-0.1-1,0.3-2.2-0.4-3.1c-0.5-0.8-1-1.8-2.1-0.3
		c-0.7,0.9-1.2,1.9-2,2.7c-0.9,0.8,0.3,1.8,0.6,2.6c0.2,0.5,0.3,1-0.1,1.2c-2.2,1.1-2,3.4-3.2,5.2v-9.8c-1.8,2.6-1.8,5.6-3,8.2
		c-0.5,1.2-0.8,2.4-2.3,2.8c-2.2,0.6-4.2,0.5-5.8-1.2c-0.8-0.9-0.5-2.2-0.6-3.4c-0.1-0.8,0.3-1.8-0.9-2.4c-0.9,1.9-2.1,3.8-2.3,6.4
		c-1.1-1.5-2.1-2.5-3.5-3c-0.6-0.2-2-4.7-1.8-5.3c0.3-0.7,0.9-0.5,1.4-0.5c2.4,0.1,4.8,0.2,7.2,0.2c0.5,0,1.1,0.3,1.7-0.3
		c-1.5-1.6-3.6-2.2-5.6-2.9c-1.3-0.5-2.7-0.9-4.1-1.2c-0.8-0.2-1-0.8-0.6-1.1c2.1-1.5,0-2.1-0.6-2.9c-0.1-0.2-0.3-0.3-0.5-0.4
		c-2.2,3.9-0.8,4.1-5.3,1.2c-3.6-2.4-5.4-6.1-7.1-10c-0.5-1.2,0.7-1.5,1.4-2.2c4.1,0.5,8.2,0.3,12.3,0.3c2.5,0,3.4-0.8,3.1-3.3
		c-0.5-4.2,0.2-8.4-0.4-12.5C178.6,72.8,178.7,72.5,178.9,72.2L178.9,72.2z M268.8,112.6c-3.3-2.5-6.1-5.4-8.6-8.6
		c-0.6-0.7,0.1-2.2-1.1-3c-0.2-0.1-0.2-0.9-0.6-0.5c-1.7,1.6-1.9-0.6-2.3-1.1c-6-7.4-11.4-15.2-16.8-23c-0.3-0.4-0.8-0.7-0.1-1.3
		c1.5-1.3,2.9-2.8,4.4-4.2c0.9-0.9,1.7-0.8,2.6,0.1c1.9,1.9,3.8,3.8,5.8,5.4c1.6,1.2,2.6,2.8,2.6,4.6c0.1,7.2,3.4,13.2,7.1,19
		c2.4,3.7,4.5,7.5,6.8,11.3C268.9,111.7,269.2,112,268.8,112.6z"/>
	<path style="fill:#F7F7F7;" d="M261.1,114.2c0.6-0.7,1.8,0.2,1.9-0.8s-0.8-1.6-1.6-1.8c-1-0.3-1-1.1-1.6-1.7c1.2-0.4,2-0.2,2.8,0.6
		c2.1,2.1,4.2,4.1,6.5,5.8c1,0.8,0.7,1.5-0.3,1.7c-1.5,0.4-3.1,0.6-4.6,0.8c-0.4,0.1-0.8,0.1-1-0.4c-0.1-0.3-0.1-0.6,0.3-0.8
		c1.5-0.9,0.4-1.5-0.3-2.1C262.6,115,261.5,115.3,261.1,114.2L261.1,114.2z"/>
	<path style="fill:#575757;" d="M218.6,107.7c1,0.9,1.8,1.9,1.6,3.3C217.2,111.1,219,108.8,218.6,107.7z"/>
	<path style="fill:#A4A4A4;" d="M69.2,19.9c0.1-0.6,0.4-1.1,1.1-1.5c0.2,1.7-0.4,3.3-0.7,4.8C69.2,22.1,69.9,20.9,69.2,19.9z"/>
</g>
</svg>
